<svg width="279" height="279" viewBox="0 0 279 279" fill="none" xmlns="http://www.w3.org/2000/svg">
<g filter="url(#filter0_i_9_1427)">
<circle cx="188.5" cy="225.5" r="14" stroke="#4A47FF" stroke-width="23"/>
<path d="M231.794 174.538C224.406 173.335 217.588 169.828 212.313 164.518C207.039 159.207 203.577 152.365 202.424 144.97C201.271 137.575 202.484 130.004 205.892 123.339C209.299 116.675 214.725 111.258 221.396 107.863C228.066 104.467 235.639 103.267 243.033 104.434C250.426 105.6 257.262 109.074 262.562 114.358C267.863 119.642 271.359 126.467 272.549 133.856C273.738 141.246 272.562 148.823 269.188 155.504" stroke="#4A47FF" stroke-width="12" stroke-linecap="round"/>
<circle cx="139.5" cy="139.5" r="14" stroke="#4A47FF" stroke-width="23"/>
<line x1="162" y1="139.5" x2="197" y2="139.5" stroke="#4A47FF" stroke-width="15"/>
<line x1="148.596" y1="158.192" x2="177.395" y2="208.074" stroke="#4A47FF" stroke-width="15"/>
</g>
<defs>
<filter id="filter0_i_9_1427" x="0" y="0" width="283" height="283" filterUnits="userSpaceOnUse" color-interpolation-filters="sRGB">
<feFlood flood-opacity="0" result="BackgroundImageFix"/>
<feBlend mode="normal" in="SourceGraphic" in2="BackgroundImageFix" result="shape"/>
<feColorMatrix in="SourceAlpha" type="matrix" values="0 0 0 0 0 0 0 0 0 0 0 0 0 0 0 0 0 0 127 0" result="hardAlpha"/>
<feOffset dx="4" dy="4"/>
<feGaussianBlur stdDeviation="3"/>
<feComposite in2="hardAlpha" operator="arithmetic" k2="-1" k3="1"/>
<feColorMatrix type="matrix" values="0 0 0 0 0 0 0 0 0 0 0 0 0 0 0 0 0 0 0.25 0"/>
<feBlend mode="normal" in2="shape" result="effect1_innerShadow_9_1427"/>
</filter>
</defs>
</svg>
