<svg width="279" height="279" viewBox="0 0 279 279" fill="none" xmlns="http://www.w3.org/2000/svg">
<g filter="url(#filter0_i_63_127)">
<circle cx="237.5" cy="139.5" r="14" stroke="#29B483" stroke-width="23"/>
<path d="M11.1305 157.883C7.00126 151.062 5.28892 143.049 6.26937 135.135C7.24982 127.222 10.866 119.869 16.5351 114.261C22.2043 108.653 29.5962 105.118 37.5199 104.224C45.4436 103.33 53.4376 105.13 60.2137 109.333C66.9897 113.536 72.1533 119.899 74.8724 127.395C77.5914 134.891 77.7076 143.084 75.2021 150.654C72.6967 158.224 67.7155 164.731 61.0613 169.124C54.4071 173.518 46.4674 175.544 38.5215 174.875" stroke="#29B483" stroke-width="12" stroke-linecap="round"/>
<circle cx="139.5" cy="139.5" r="35.5" stroke="#29B483" stroke-width="12"/>
<line x1="78" y1="139.5" x2="101" y2="139.5" stroke="#29B483" stroke-width="15"/>
<line x1="169" y1="141.5" x2="223" y2="141.5" stroke="#29B483" stroke-width="15"/>
</g>
<defs>
<filter id="filter0_i_63_127" x="-6.10352e-05" y="0" width="279" height="283" filterUnits="userSpaceOnUse" color-interpolation-filters="sRGB">
<feFlood flood-opacity="0" result="BackgroundImageFix"/>
<feBlend mode="normal" in="SourceGraphic" in2="BackgroundImageFix" result="shape"/>
<feColorMatrix in="SourceAlpha" type="matrix" values="0 0 0 0 0 0 0 0 0 0 0 0 0 0 0 0 0 0 127 0" result="hardAlpha"/>
<feOffset dy="4"/>
<feGaussianBlur stdDeviation="2"/>
<feComposite in2="hardAlpha" operator="arithmetic" k2="-1" k3="1"/>
<feColorMatrix type="matrix" values="0 0 0 0 0 0 0 0 0 0 0 0 0 0 0 0 0 0 0.25 0"/>
<feBlend mode="normal" in2="shape" result="effect1_innerShadow_63_127"/>
</filter>
</defs>
</svg>
