<svg width="279" height="279" viewBox="0 0 279 279" fill="none" xmlns="http://www.w3.org/2000/svg">
<g filter="url(#filter0_i_9_1414)">
<path d="M190.594 259.865C182.65 260.56 174.704 258.56 168.036 254.188C161.367 249.816 156.365 243.326 153.835 235.764C151.304 228.202 151.394 220.009 154.088 212.504C156.783 204.999 161.926 198.62 168.688 194.394C175.45 190.169 183.438 188.343 191.365 189.211C199.291 190.079 206.695 193.591 212.382 199.18C218.07 204.769 221.71 212.11 222.716 220.02C223.722 227.93 222.036 235.949 217.929 242.784" stroke="#FFE730" stroke-width="12" stroke-linecap="round"/>
<path d="M170.404 156.969C168.11 161.028 165.039 164.595 161.367 167.466C157.694 170.338 153.492 172.458 149 173.705C144.508 174.953 139.814 175.303 135.187 174.737C130.56 174.171 126.089 172.698 122.031 170.404C117.972 168.11 114.405 165.039 111.534 161.367C108.662 157.694 106.542 153.492 105.295 149C104.047 144.508 103.697 139.814 104.263 135.187C104.829 130.56 106.302 126.089 108.596 122.031C110.89 117.972 113.961 114.405 117.633 111.534C121.306 108.662 125.508 106.542 130 105.295C134.492 104.047 139.186 103.697 143.813 104.263C148.44 104.829 152.911 106.302 156.969 108.596C161.028 110.89 164.595 113.961 167.466 117.633C170.338 121.306 172.458 125.508 173.705 130C174.953 134.492 175.303 139.186 174.737 143.813C174.171 148.44 172.698 152.911 170.404 156.969L170.404 156.969Z" stroke="#FFE730" stroke-width="12" stroke-linecap="round"/>
<path d="M219.404 70.9694C215.541 77.8033 209.522 83.1641 202.288 86.213C195.054 89.262 187.013 89.8272 179.424 87.8202C171.835 85.8133 165.125 81.3473 160.344 75.121C155.563 68.8947 152.98 61.2593 153 53.4091C153.02 45.5589 155.642 37.9368 160.455 31.735C165.268 25.5333 172.001 21.1018 179.6 19.1337C187.2 17.1657 195.237 17.772 202.455 20.858C209.674 23.944 215.665 29.3355 219.493 36.1892" stroke="#FFE730" stroke-width="12" stroke-linecap="round"/>
<line x1="156.101" y1="107.801" x2="169.909" y2="83.8854" stroke="#FFE730" stroke-width="15"/>
<line x1="159.441" y1="169.281" x2="172.549" y2="191.984" stroke="#FFE730" stroke-width="15"/>
</g>
<defs>
<filter id="filter0_i_9_1414" x="0" y="0" width="283" height="283" filterUnits="userSpaceOnUse" color-interpolation-filters="sRGB">
<feFlood flood-opacity="0" result="BackgroundImageFix"/>
<feBlend mode="normal" in="SourceGraphic" in2="BackgroundImageFix" result="shape"/>
<feColorMatrix in="SourceAlpha" type="matrix" values="0 0 0 0 0 0 0 0 0 0 0 0 0 0 0 0 0 0 127 0" result="hardAlpha"/>
<feOffset dx="4" dy="4"/>
<feGaussianBlur stdDeviation="3"/>
<feComposite in2="hardAlpha" operator="arithmetic" k2="-1" k3="1"/>
<feColorMatrix type="matrix" values="0 0 0 0 0 0 0 0 0 0 0 0 0 0 0 0 0 0 0.25 0"/>
<feBlend mode="normal" in2="shape" result="effect1_innerShadow_9_1414"/>
</filter>
</defs>
</svg>
