<svg width="279" height="279" viewBox="0 0 279 279" fill="none" xmlns="http://www.w3.org/2000/svg">
<g filter="url(#filter0_i_7_1055)">
<circle cx="237.5" cy="139.5" r="14" stroke="#55F03A" stroke-width="23"/>
<path d="M41.5 175C33.526 175 25.7843 172.315 19.5222 167.379C13.2601 162.442 8.84235 155.541 6.98087 147.787C5.11938 140.034 5.92254 131.879 9.26092 124.638C12.5993 117.396 18.2785 111.489 25.3833 107.869C32.4882 104.249 40.605 103.126 48.4257 104.682C56.2465 106.238 63.3157 110.381 68.4944 116.445C73.6731 122.508 76.6596 130.138 76.9726 138.106C77.2857 146.074 74.9071 153.915 70.2201 160.366" stroke="#55F03A" stroke-width="12" stroke-linecap="round"/>
<circle cx="139.5" cy="139.5" r="35.5" stroke="#55F03A" stroke-width="12"/>
<line x1="78" y1="139.5" x2="101" y2="139.5" stroke="#55F03A" stroke-width="15"/>
<line x1="169" y1="141.5" x2="223" y2="141.5" stroke="#55F03A" stroke-width="15"/>
</g>
<defs>
<filter id="filter0_i_7_1055" x="-3.05176e-05" y="0" width="283" height="283" filterUnits="userSpaceOnUse" color-interpolation-filters="sRGB">
<feFlood flood-opacity="0" result="BackgroundImageFix"/>
<feBlend mode="normal" in="SourceGraphic" in2="BackgroundImageFix" result="shape"/>
<feColorMatrix in="SourceAlpha" type="matrix" values="0 0 0 0 0 0 0 0 0 0 0 0 0 0 0 0 0 0 127 0" result="hardAlpha"/>
<feOffset dx="4" dy="4"/>
<feGaussianBlur stdDeviation="3"/>
<feComposite in2="hardAlpha" operator="arithmetic" k2="-1" k3="1"/>
<feColorMatrix type="matrix" values="0 0 0 0 0 0 0 0 0 0 0 0 0 0 0 0 0 0 0.25 0"/>
<feBlend mode="normal" in2="shape" result="effect1_innerShadow_7_1055"/>
</filter>
</defs>
</svg>
