<svg width="279" height="279" viewBox="0 0 279 279" fill="none" xmlns="http://www.w3.org/2000/svg">
<g filter="url(#filter0_i_9_1087)">
<circle cx="41.5" cy="139.5" r="14" stroke="#F78C00" stroke-width="23"/>
<path d="M170.404 156.969C166.541 163.803 160.522 169.164 153.288 172.213C146.054 175.262 138.013 175.827 130.424 173.82C122.835 171.813 116.125 167.347 111.344 161.121C106.563 154.895 103.98 147.259 104 139.409C104.02 131.559 106.642 123.937 111.455 117.735C116.268 111.533 123.001 107.102 130.6 105.134C138.2 103.166 146.237 103.772 153.455 106.858C160.674 109.944 166.665 115.336 170.493 122.189" stroke="#F78C00" stroke-width="12" stroke-linecap="round"/>
<circle cx="90.5" cy="53.5" r="14" stroke="#F78C00" stroke-width="23"/>
<line x1="95.2558" y1="63.9168" x2="118.735" y2="104.583" stroke="#F78C00" stroke-width="15"/>
<line x1="63" y1="139.5" x2="99" y2="139.5" stroke="#F78C00" stroke-width="15"/>
</g>
<defs>
<filter id="filter0_i_9_1087" x="0" y="0" width="283" height="283" filterUnits="userSpaceOnUse" color-interpolation-filters="sRGB">
<feFlood flood-opacity="0" result="BackgroundImageFix"/>
<feBlend mode="normal" in="SourceGraphic" in2="BackgroundImageFix" result="shape"/>
<feColorMatrix in="SourceAlpha" type="matrix" values="0 0 0 0 0 0 0 0 0 0 0 0 0 0 0 0 0 0 127 0" result="hardAlpha"/>
<feOffset dx="4" dy="4"/>
<feGaussianBlur stdDeviation="3"/>
<feComposite in2="hardAlpha" operator="arithmetic" k2="-1" k3="1"/>
<feColorMatrix type="matrix" values="0 0 0 0 0 0 0 0 0 0 0 0 0 0 0 0 0 0 0.25 0"/>
<feBlend mode="normal" in2="shape" result="effect1_innerShadow_9_1087"/>
</filter>
</defs>
</svg>
